<svg width="548" height="349" viewBox="0 0 548 349" fill="none" xmlns="http://www.w3.org/2000/svg">
<g filter="url(#filter0_d_1_3505)">
<rect x="13.3472" y="9.77234" width="496.19" height="298.342" rx="20" fill="#70EE91"/>
<rect x="413.754" y="232.744" width="71.1834" height="50.2471" rx="6.28089" fill="white" fill-opacity="0.1"/>
<path fill-rule="evenodd" clip-rule="evenodd" d="M449.72 267.978C447.241 270.068 444.025 271.329 440.512 271.329C432.671 271.329 426.315 265.049 426.315 257.302C426.315 249.555 432.671 243.275 440.512 243.275C444.025 243.275 447.241 244.536 449.72 246.626C452.199 244.536 455.415 243.275 458.928 243.275C466.769 243.275 473.125 249.555 473.125 257.302C473.125 265.049 466.769 271.329 458.928 271.329C455.415 271.329 452.199 270.068 449.72 267.978Z" fill="#ED0006"/>
<path fill-rule="evenodd" clip-rule="evenodd" d="M458.928 271.329C466.769 271.329 473.125 265.049 473.125 257.302C473.125 249.555 466.769 243.275 458.928 243.275C455.415 243.275 452.199 244.536 449.72 246.626C452.772 249.198 454.708 253.027 454.708 257.302C454.708 261.577 452.772 265.406 449.72 267.978C452.199 270.068 455.415 271.329 458.928 271.329Z" fill="#F9A000"/>
<path fill-rule="evenodd" clip-rule="evenodd" d="M449.72 267.978C446.668 265.406 444.732 261.577 444.732 257.302C444.732 253.027 446.668 249.199 449.72 246.626C452.772 249.199 454.708 253.027 454.708 257.302C454.708 261.577 452.772 265.406 449.72 267.978Z" fill="#FF5E00"/>
<path d="M43.3824 275.446V260.246L39.9781 262.319V259.392L43.3824 257.357H46.058V275.446H43.3824ZM54.0944 275.433L54.107 273.097L61.9832 266.037C62.6197 265.476 63.051 264.94 63.2771 264.429C63.5115 263.919 63.6288 263.408 63.6288 262.897C63.6288 262.252 63.4864 261.674 63.2017 261.163C62.917 260.644 62.5234 260.234 62.0209 259.932C61.5184 259.631 60.9406 259.48 60.2874 259.48C59.6174 259.48 59.0186 259.639 58.491 259.957C57.9718 260.267 57.5656 260.682 57.2725 261.201C56.9794 261.72 56.8371 262.281 56.8454 262.884H54.1572C54.1572 261.712 54.421 260.686 54.9486 259.807C55.4846 258.919 56.2173 258.228 57.1469 257.734C58.0765 257.231 59.1401 256.98 60.3376 256.98C61.4765 256.98 62.4982 257.24 63.4027 257.759C64.3071 258.27 65.019 258.973 65.5382 259.869C66.0658 260.766 66.3296 261.787 66.3296 262.935C66.3296 263.764 66.2207 264.467 66.003 265.045C65.7852 265.623 65.4586 266.159 65.0231 266.653C64.5877 267.147 64.0433 267.683 63.3901 268.261L57.3102 273.687L57.0213 272.934H66.3296V275.433H54.0944ZM78.1732 275.785C77.2771 275.785 76.4355 275.618 75.6482 275.283C74.861 274.939 74.1785 274.454 73.6007 273.826C73.0312 273.197 72.6167 272.456 72.3571 271.602L74.8945 270.899C75.1374 271.678 75.5603 272.276 76.1633 272.695C76.7662 273.105 77.4362 273.306 78.1732 273.298C78.8348 273.29 79.4168 273.135 79.9193 272.833C80.4217 272.532 80.8153 272.126 81.1001 271.615C81.3848 271.095 81.5272 270.501 81.5272 269.831C81.5272 268.826 81.2131 267.997 80.585 267.344C79.9653 266.69 79.153 266.364 78.148 266.364C77.8633 266.364 77.5702 266.406 77.2687 266.49C76.9756 266.573 76.6993 266.682 76.4396 266.816L75.2086 264.743L81.59 259.103L81.8663 259.857H73.0731V257.357H83.9516V259.857L78.6505 264.957L78.6254 264.103C79.7643 264.103 80.7525 264.358 81.59 264.869C82.4274 265.372 83.0723 266.058 83.5245 266.929C83.9851 267.792 84.2154 268.759 84.2154 269.831C84.2154 270.987 83.9432 272.012 83.3989 272.909C82.8629 273.805 82.1385 274.508 81.2257 275.019C80.3212 275.53 79.3037 275.785 78.1732 275.785ZM98.9193 275.446V272.293H90.7542V269.806L96.6331 257.357H99.6353L93.7564 269.806H98.9193V264.907H101.582V269.806H103.379V272.293H101.582V275.446H98.9193ZM122.114 275.446V260.246L118.71 262.319V259.392L122.114 257.357H124.79V275.446H122.114ZM132.826 275.433L132.839 273.097L140.715 266.037C141.352 265.476 141.783 264.94 142.009 264.429C142.243 263.919 142.361 263.408 142.361 262.897C142.361 262.252 142.218 261.674 141.934 261.163C141.649 260.644 141.255 260.234 140.753 259.932C140.25 259.631 139.672 259.48 139.019 259.48C138.349 259.48 137.751 259.639 137.223 259.957C136.704 260.267 136.298 260.682 136.004 261.201C135.711 261.72 135.569 262.281 135.577 262.884H132.889C132.889 261.712 133.153 260.686 133.68 259.807C134.216 258.919 134.949 258.228 135.879 257.734C136.808 257.231 137.872 256.98 139.069 256.98C140.208 256.98 141.23 257.24 142.135 257.759C143.039 258.27 143.751 258.973 144.27 259.869C144.798 260.766 145.061 261.787 145.061 262.935C145.061 263.764 144.953 264.467 144.735 265.045C144.517 265.623 144.191 266.159 143.755 266.653C143.32 267.147 142.775 267.683 142.122 268.261L136.042 273.687L135.753 272.934H145.061V275.433H132.826ZM156.905 275.785C156.009 275.785 155.167 275.618 154.38 275.283C153.593 274.939 152.91 274.454 152.333 273.826C151.763 273.197 151.349 272.456 151.089 271.602L153.626 270.899C153.869 271.678 154.292 272.276 154.895 272.695C155.498 273.105 156.168 273.306 156.905 273.298C157.567 273.29 158.149 273.135 158.651 272.833C159.154 272.532 159.547 272.126 159.832 271.615C160.117 271.095 160.259 270.501 160.259 269.831C160.259 268.826 159.945 267.997 159.317 267.344C158.697 266.69 157.885 266.364 156.88 266.364C156.595 266.364 156.302 266.406 156.001 266.49C155.708 266.573 155.431 266.682 155.172 266.816L153.94 264.743L160.322 259.103L160.598 259.857H151.805V257.357H162.683V259.857L157.382 264.957L157.357 264.103C158.496 264.103 159.484 264.358 160.322 264.869C161.159 265.372 161.804 266.058 162.256 266.929C162.717 267.792 162.947 268.759 162.947 269.831C162.947 270.987 162.675 272.012 162.131 272.909C161.595 273.805 160.87 274.508 159.958 275.019C159.053 275.53 158.036 275.785 156.905 275.785ZM177.651 275.446V272.293H169.486V269.806L175.365 257.357H178.367L172.488 269.806H177.651V264.907H180.314V269.806H182.111V272.293H180.314V275.446H177.651ZM200.846 275.446V260.246L197.442 262.319V259.392L200.846 257.357H203.522V275.446H200.846ZM211.558 275.433L211.571 273.097L219.447 266.037C220.083 265.476 220.515 264.94 220.741 264.429C220.975 263.919 221.093 263.408 221.093 262.897C221.093 262.252 220.95 261.674 220.665 261.163C220.381 260.644 219.987 260.234 219.485 259.932C218.982 259.631 218.404 259.48 217.751 259.48C217.081 259.48 216.482 259.639 215.955 259.957C215.436 260.267 215.029 260.682 214.736 261.201C214.443 261.72 214.301 262.281 214.309 262.884H211.621C211.621 261.712 211.885 260.686 212.412 259.807C212.948 258.919 213.681 258.228 214.611 257.734C215.54 257.231 216.604 256.98 217.801 256.98C218.94 256.98 219.962 257.24 220.866 257.759C221.771 258.27 222.483 258.973 223.002 259.869C223.53 260.766 223.793 261.787 223.793 262.935C223.793 263.764 223.684 264.467 223.467 265.045C223.249 265.623 222.922 266.159 222.487 266.653C222.051 267.147 221.507 267.683 220.854 268.261L214.774 273.687L214.485 272.934H223.793V275.433H211.558ZM235.637 275.785C234.741 275.785 233.899 275.618 233.112 275.283C232.325 274.939 231.642 274.454 231.064 273.826C230.495 273.197 230.08 272.456 229.821 271.602L232.358 270.899C232.601 271.678 233.024 272.276 233.627 272.695C234.23 273.105 234.9 273.306 235.637 273.298C236.299 273.29 236.881 273.135 237.383 272.833C237.886 272.532 238.279 272.126 238.564 271.615C238.849 271.095 238.991 270.501 238.991 269.831C238.991 268.826 238.677 267.997 238.049 267.344C237.429 266.69 236.617 266.364 235.612 266.364C235.327 266.364 235.034 266.406 234.732 266.49C234.439 266.573 234.163 266.682 233.903 266.816L232.672 264.743L239.054 259.103L239.33 259.857H230.537V257.357H241.415V259.857L236.114 264.957L236.089 264.103C237.228 264.103 238.216 264.358 239.054 264.869C239.891 265.372 240.536 266.058 240.988 266.929C241.449 267.792 241.679 268.759 241.679 269.831C241.679 270.987 241.407 272.012 240.863 272.909C240.327 273.805 239.602 274.508 238.689 275.019C237.785 275.53 236.768 275.785 235.637 275.785ZM256.383 275.446V272.293H248.218V269.806L254.097 257.357H257.099L251.22 269.806H256.383V264.907H259.046V269.806H260.843V272.293H259.046V275.446H256.383ZM279.578 275.446V260.246L276.174 262.319V259.392L279.578 257.357H282.254V275.446H279.578ZM290.29 275.433L290.303 273.097L298.179 266.037C298.815 265.476 299.247 264.94 299.473 264.429C299.707 263.919 299.824 263.408 299.824 262.897C299.824 262.252 299.682 261.674 299.397 261.163C299.113 260.644 298.719 260.234 298.217 259.932C297.714 259.631 297.136 259.48 296.483 259.48C295.813 259.48 295.214 259.639 294.687 259.957C294.167 260.267 293.761 260.682 293.468 261.201C293.175 261.72 293.033 262.281 293.041 262.884H290.353C290.353 261.712 290.617 260.686 291.144 259.807C291.68 258.919 292.413 258.228 293.343 257.734C294.272 257.231 295.336 256.98 296.533 256.98C297.672 256.98 298.694 257.24 299.598 257.759C300.503 258.27 301.215 258.973 301.734 259.869C302.261 260.766 302.525 261.787 302.525 262.935C302.525 263.764 302.416 264.467 302.199 265.045C301.981 265.623 301.654 266.159 301.219 266.653C300.783 267.147 300.239 267.683 299.586 268.261L293.506 273.687L293.217 272.934H302.525V275.433H290.29ZM314.369 275.785C313.473 275.785 312.631 275.618 311.844 275.283C311.057 274.939 310.374 274.454 309.796 273.826C309.227 273.197 308.812 272.456 308.553 271.602L311.09 270.899C311.333 271.678 311.756 272.276 312.359 272.695C312.962 273.105 313.632 273.306 314.369 273.298C315.03 273.29 315.612 273.135 316.115 272.833C316.617 272.532 317.011 272.126 317.296 271.615C317.58 271.095 317.723 270.501 317.723 269.831C317.723 268.826 317.409 267.997 316.781 267.344C316.161 266.69 315.349 266.364 314.344 266.364C314.059 266.364 313.766 266.406 313.464 266.49C313.171 266.573 312.895 266.682 312.635 266.816L311.404 264.743L317.786 259.103L318.062 259.857H309.269V257.357H320.147V259.857L314.846 264.957L314.821 264.103C315.96 264.103 316.948 264.358 317.786 264.869C318.623 265.372 319.268 266.058 319.72 266.929C320.181 267.792 320.411 268.759 320.411 269.831C320.411 270.987 320.139 272.012 319.595 272.909C319.059 273.805 318.334 274.508 317.421 275.019C316.517 275.53 315.499 275.785 314.369 275.785ZM335.115 275.446V272.293H326.95V269.806L332.829 257.357H335.831L329.952 269.806H335.115V264.907H337.778V269.806H339.574V272.293H337.778V275.446H335.115Z" fill="#23432B"/>
<path d="M39.7897 230.761V217.194H45.2729C45.4048 217.194 45.5681 217.2 45.7628 217.213C45.9575 217.219 46.1428 217.238 46.3187 217.269C47.0724 217.389 47.7005 217.646 48.2029 218.042C48.7117 218.438 49.0917 218.937 49.3429 219.54C49.5942 220.143 49.7198 220.809 49.7198 221.537C49.7198 222.272 49.5942 222.941 49.3429 223.544C49.0917 224.147 48.7117 224.646 48.2029 225.042C47.7005 225.438 47.0724 225.695 46.3187 225.815C46.1428 225.84 45.9544 225.859 45.7534 225.871C45.5587 225.884 45.3985 225.89 45.2729 225.89H41.7587V230.761H39.7897ZM41.7587 224.024H45.1975C45.3232 224.024 45.4613 224.018 45.6121 224.006C45.7691 223.993 45.9167 223.971 46.0549 223.94C46.4569 223.845 46.7803 223.673 47.0253 223.422C47.2702 223.164 47.4461 222.869 47.5529 222.536C47.6596 222.203 47.713 221.87 47.713 221.537C47.713 221.204 47.6596 220.875 47.5529 220.548C47.4461 220.215 47.2702 219.923 47.0253 219.672C46.7803 219.414 46.4569 219.238 46.0549 219.144C45.9167 219.107 45.7691 219.081 45.6121 219.069C45.4613 219.056 45.3232 219.05 45.1975 219.05H41.7587V224.024ZM52.5453 230.761V217.194H54.5143V223.045H61.2977V217.194H63.2762V230.761H61.2977V224.901H54.5143V230.761H52.5453ZM72.5272 231.043C71.1705 231.043 70.0148 230.748 69.0601 230.158C68.1054 229.561 67.3737 228.732 66.865 227.671C66.3625 226.609 66.1113 225.378 66.1113 223.977C66.1113 222.577 66.3625 221.346 66.865 220.284C67.3737 219.223 68.1054 218.397 69.0601 217.806C70.0148 217.21 71.1705 216.911 72.5272 216.911C73.8776 216.911 75.0301 217.21 75.9848 217.806C76.9458 218.397 77.6775 219.223 78.18 220.284C78.6825 221.346 78.9337 222.577 78.9337 223.977C78.9337 225.378 78.6825 226.609 78.18 227.671C77.6775 228.732 76.9458 229.561 75.9848 230.158C75.0301 230.748 73.8776 231.043 72.5272 231.043ZM72.5272 229.169C73.4882 229.181 74.2858 228.971 74.9202 228.537C75.5609 228.098 76.0413 227.488 76.3617 226.71C76.682 225.924 76.8422 225.014 76.8422 223.977C76.8422 222.941 76.682 222.037 76.3617 221.264C76.0413 220.485 75.5609 219.879 74.9202 219.446C74.2858 219.012 73.4882 218.793 72.5272 218.786C71.5662 218.774 70.7654 218.984 70.1248 219.417C69.4904 219.851 69.013 220.46 68.6927 221.245C68.3724 222.03 68.2091 222.941 68.2028 223.977C68.1965 225.014 68.3535 225.921 68.6739 226.7C68.9942 227.473 69.4747 228.076 70.1153 228.509C70.7623 228.942 71.5662 229.162 72.5272 229.169ZM81.7551 230.761V217.194H90.4227V219.05H83.7241V222.856H89.2922V224.712H83.7241V228.905H90.4227V230.761H81.7551ZM93.6274 230.761V217.194H95.6248L102.304 227.275V217.194H104.302V230.761H102.304L95.6248 220.67V230.761H93.6274ZM108.062 230.761V217.194H110.031V230.761H108.062ZM112.672 230.761L117.298 223.893L112.794 217.194H115.206L118.513 222.225L121.801 217.194H124.222L119.719 223.893L124.335 230.761H121.924L118.513 225.57L115.093 230.761H112.672ZM131.493 230.761V217.194H136.826C137.686 217.194 138.408 217.37 138.992 217.722C139.577 218.073 140.016 218.529 140.311 219.088C140.607 219.64 140.754 220.225 140.754 220.84C140.754 221.588 140.569 222.228 140.198 222.762C139.834 223.296 139.341 223.66 138.719 223.855L138.7 223.393C139.567 223.607 140.233 224.024 140.698 224.646C141.163 225.262 141.395 225.981 141.395 226.804C141.395 227.601 141.235 228.295 140.914 228.886C140.6 229.476 140.139 229.938 139.529 230.271C138.927 230.597 138.195 230.761 137.334 230.761H131.493ZM133.49 228.886H137.033C137.479 228.886 137.878 228.801 138.229 228.632C138.587 228.462 138.867 228.22 139.068 227.906C139.275 227.586 139.379 227.206 139.379 226.766C139.379 226.358 139.288 225.99 139.106 225.664C138.93 225.331 138.672 225.07 138.333 224.882C138 224.687 137.608 224.59 137.155 224.59H133.49V228.886ZM133.49 222.734H136.797C137.162 222.734 137.488 222.662 137.777 222.517C138.072 222.366 138.305 222.153 138.474 221.876C138.65 221.594 138.738 221.255 138.738 220.859C138.738 220.331 138.562 219.898 138.21 219.559C137.859 219.22 137.388 219.05 136.797 219.05H133.49V222.734ZM143.27 230.761L147.679 217.194H150.515L154.924 230.761H152.88L148.819 218.381H149.328L145.314 230.761H143.27ZM145.559 227.699V225.852H152.644V227.699H145.559ZM157.556 230.761V217.194H159.525V223.525L165.206 217.194H167.656L161.655 223.817L168.099 230.761H165.574L159.525 224.279V230.761H157.556ZM170.367 230.761V217.194H179.035V219.05H172.336V222.856H177.904V224.712H172.336V228.905H179.035V230.761H170.367ZM182.239 230.761V217.194H187.723C187.855 217.194 188.018 217.2 188.213 217.213C188.407 217.219 188.593 217.238 188.768 217.269C189.522 217.389 190.15 217.646 190.653 218.042C191.161 218.438 191.541 218.937 191.793 219.54C192.044 220.143 192.17 220.809 192.17 221.537C192.17 222.618 191.893 223.55 191.34 224.335C190.788 225.114 189.959 225.601 188.853 225.796L188.052 225.89H184.209V230.761H182.239ZM190.172 230.761L187.497 225.24L189.484 224.731L192.424 230.761H190.172ZM184.209 224.024H187.647C187.773 224.024 187.911 224.018 188.062 224.006C188.219 223.993 188.366 223.971 188.505 223.94C188.907 223.845 189.23 223.673 189.475 223.422C189.72 223.164 189.896 222.869 190.003 222.536C190.109 222.203 190.163 221.87 190.163 221.537C190.163 221.204 190.109 220.875 190.003 220.548C189.896 220.215 189.72 219.923 189.475 219.672C189.23 219.414 188.907 219.238 188.505 219.144C188.366 219.107 188.219 219.081 188.062 219.069C187.911 219.056 187.773 219.05 187.647 219.05H184.209V224.024Z" fill="#23432B"/>
<path d="M289.993 231.043C289.069 231.043 288.253 230.842 287.543 230.44C286.833 230.032 286.274 229.473 285.866 228.763C285.464 228.054 285.263 227.237 285.263 226.314V221.641C285.263 220.718 285.464 219.901 285.866 219.191C286.274 218.482 286.833 217.926 287.543 217.524C288.253 217.115 289.069 216.911 289.993 216.911C290.916 216.911 291.732 217.115 292.442 217.524C293.152 217.926 293.708 218.482 294.11 219.191C294.518 219.901 294.722 220.718 294.722 221.641V226.314C294.722 227.237 294.518 228.054 294.11 228.763C293.708 229.473 293.152 230.032 292.442 230.44C291.732 230.842 290.916 231.043 289.993 231.043ZM289.993 229.159C290.495 229.159 290.95 229.04 291.359 228.801C291.773 228.556 292.103 228.23 292.348 227.821C292.593 227.407 292.715 226.945 292.715 226.436V221.5C292.715 220.997 292.593 220.542 292.348 220.133C292.103 219.719 291.773 219.392 291.359 219.154C290.95 218.909 290.495 218.786 289.993 218.786C289.49 218.786 289.032 218.909 288.617 219.154C288.209 219.392 287.882 219.719 287.637 220.133C287.392 220.542 287.27 220.997 287.27 221.5V226.436C287.27 226.945 287.392 227.407 287.637 227.821C287.882 228.23 288.209 228.556 288.617 228.801C289.032 229.04 289.49 229.159 289.993 229.159ZM302.958 231.043C302.079 231.043 301.288 230.836 300.584 230.422C299.881 230.001 299.322 229.426 298.907 228.697C298.499 227.969 298.295 227.14 298.295 226.21V221.886C298.295 220.9 298.499 220.033 298.907 219.286C299.322 218.538 299.893 217.957 300.622 217.543C301.357 217.128 302.201 216.921 303.156 216.921C303.872 216.921 304.544 217.056 305.172 217.326C305.8 217.596 306.344 217.998 306.802 218.532L305.361 219.879C305.103 219.546 304.78 219.282 304.39 219.088C304.007 218.887 303.596 218.786 303.156 218.786C302.591 218.786 302.095 218.921 301.668 219.191C301.24 219.455 300.904 219.804 300.659 220.237C300.421 220.67 300.301 221.135 300.301 221.631V224.119L299.915 223.685C300.305 223.177 300.788 222.775 301.366 222.479C301.944 222.184 302.563 222.037 303.222 222.037C304.064 222.037 304.814 222.234 305.474 222.63C306.14 223.02 306.661 223.55 307.038 224.222C307.421 224.894 307.612 225.651 307.612 226.493C307.612 227.341 307.399 228.11 306.972 228.801C306.551 229.486 305.986 230.032 305.276 230.44C304.572 230.842 303.8 231.043 302.958 231.043ZM302.958 229.15C303.448 229.15 303.894 229.03 304.296 228.792C304.698 228.553 305.018 228.233 305.257 227.831C305.496 227.429 305.615 226.983 305.615 226.493C305.615 226.003 305.496 225.557 305.257 225.155C305.025 224.753 304.708 224.433 304.306 224.194C303.904 223.955 303.458 223.836 302.968 223.836C302.478 223.836 302.029 223.955 301.62 224.194C301.218 224.433 300.898 224.753 300.659 225.155C300.421 225.557 300.301 226.003 300.301 226.493C300.301 226.976 300.421 227.419 300.659 227.821C300.898 228.223 301.218 228.547 301.62 228.792C302.022 229.03 302.468 229.15 302.958 229.15ZM314.369 217.194H316.357L312.739 230.761H310.752L314.369 217.194ZM319.381 230.751L319.39 228.999L325.297 223.704C325.775 223.283 326.098 222.881 326.268 222.498C326.444 222.115 326.532 221.732 326.532 221.349C326.532 220.865 326.425 220.432 326.211 220.049C325.998 219.659 325.703 219.351 325.326 219.125C324.949 218.899 324.515 218.786 324.026 218.786C323.523 218.786 323.074 218.906 322.678 219.144C322.289 219.377 321.984 219.688 321.764 220.077C321.545 220.466 321.438 220.887 321.444 221.339H319.428C319.428 220.46 319.626 219.691 320.022 219.031C320.423 218.365 320.973 217.847 321.67 217.477C322.367 217.1 323.165 216.911 324.063 216.911C324.917 216.911 325.684 217.106 326.362 217.495C327.04 217.879 327.574 218.406 327.964 219.078C328.359 219.75 328.557 220.517 328.557 221.377C328.557 221.999 328.476 222.526 328.312 222.96C328.149 223.393 327.904 223.795 327.577 224.166C327.251 224.536 326.843 224.938 326.353 225.372L321.793 229.442L321.576 228.876H328.557V230.751H319.381ZM337.138 230.761V228.396H331.014V226.531L335.423 217.194H337.675L333.266 226.531H337.138V222.856H339.135V226.531H340.482V228.396H339.135V230.761H337.138Z" fill="#23432B"/>
<g clip-path="url(#clip0_1_3505)">
<path d="M470.316 43.1956C473.269 48.3107 474.824 54.113 474.824 60.0194C474.824 65.9258 473.269 71.7281 470.316 76.8432M462.914 46.8969C465.217 50.8866 466.43 55.4124 466.43 60.0194C466.43 64.6264 465.217 69.1522 462.914 73.142M455.848 50.2953C457.513 53.2109 458.39 56.5182 458.39 59.8848C458.39 63.2515 457.513 66.5588 455.848 69.4744M448.782 53.9629C449.982 55.7796 450.618 57.878 450.618 60.0194C450.618 62.1608 449.982 64.2593 448.782 66.076" stroke="black" stroke-width="4.03771" stroke-linecap="round"/>
</g>
<rect x="14.1323" y="10.5574" width="494.62" height="296.772" rx="19.2149" stroke="url(#paint0_linear_1_3505)" stroke-width="1.57022"/>
</g>
<defs>
<filter id="filter0_d_1_3505" x="0.785396" y="0.351009" width="546.437" height="348.589" filterUnits="userSpaceOnUse" color-interpolation-filters="sRGB">
<feFlood flood-opacity="0" result="BackgroundImageFix"/>
<feColorMatrix in="SourceAlpha" type="matrix" values="0 0 0 0 0 0 0 0 0 0 0 0 0 0 0 0 0 0 127 0" result="hardAlpha"/>
<feOffset dx="12.5618" dy="15.7022"/>
<feGaussianBlur stdDeviation="12.5618"/>
<feColorMatrix type="matrix" values="0 0 0 0 0 0 0 0 0 0 0 0 0 0 0 0 0 0 0.05 0"/>
<feBlend mode="normal" in2="BackgroundImageFix" result="effect1_dropShadow_1_3505"/>
<feBlend mode="normal" in="SourceGraphic" in2="effect1_dropShadow_1_3505" result="shape"/>
</filter>
<linearGradient id="paint0_linear_1_3505" x1="13.3472" y1="22.3703" x2="498.204" y2="326.201" gradientUnits="userSpaceOnUse">
<stop stop-color="white"/>
<stop offset="1" stop-color="white" stop-opacity="0.2"/>
</linearGradient>
<clipPath id="clip0_1_3505">
<rect width="31.4044" height="37.6853" fill="white" transform="translate(446.538 41.1768)"/>
</clipPath>
</defs>
</svg>
