<svg width="498" height="299" viewBox="0 0 498 299" fill="none" xmlns="http://www.w3.org/2000/svg">
<rect x="1.63264" y="1.0562" width="494.62" height="296.772" rx="19.2149" fill="url(#paint0_linear_1_3507)"/>
<rect x="401.254" y="223.243" width="71.1834" height="50.2471" rx="6.28089" fill="#101828" fill-opacity="0.1"/>
<path opacity="0.5" fill-rule="evenodd" clip-rule="evenodd" d="M437.22 258.477C434.741 260.567 431.526 261.828 428.012 261.828C420.172 261.828 413.816 255.548 413.816 247.801C413.816 240.054 420.172 233.773 428.012 233.773C431.526 233.773 434.741 235.035 437.22 237.124C439.699 235.035 442.915 233.773 446.429 233.773C454.269 233.773 460.625 240.054 460.625 247.801C460.625 255.548 454.269 261.828 446.429 261.828C442.915 261.828 439.699 260.567 437.22 258.477Z" fill="#101828"/>
<path opacity="0.5" fill-rule="evenodd" clip-rule="evenodd" d="M437.22 258.477C440.273 255.904 442.208 252.076 442.208 247.801C442.208 243.526 440.273 239.697 437.22 237.124C439.699 235.035 442.915 233.774 446.429 233.774C454.269 233.774 460.625 240.054 460.625 247.801C460.625 255.548 454.269 261.828 446.429 261.828C442.915 261.828 439.699 260.567 437.22 258.477Z" fill="#101828"/>
<path fill-rule="evenodd" clip-rule="evenodd" d="M437.22 258.477C440.273 255.904 442.208 252.076 442.208 247.801C442.208 243.526 440.273 239.697 437.221 237.124C434.168 239.697 432.233 243.526 432.233 247.801C432.233 252.076 434.168 255.904 437.22 258.477Z" fill="#101828"/>
<path d="M30.8827 265.945V250.745L27.4785 252.818V249.891L30.8827 247.856H33.5584V265.945H30.8827ZM41.5948 265.932L41.6073 263.596L49.4836 256.536C50.12 255.975 50.5513 255.439 50.7774 254.928C51.0119 254.417 51.1292 253.906 51.1292 253.396C51.1292 252.751 50.9868 252.173 50.7021 251.662C50.4173 251.143 50.0237 250.732 49.5213 250.431C49.0188 250.129 48.4409 249.979 47.7877 249.979C47.1178 249.979 46.519 250.138 45.9914 250.456C45.4722 250.766 45.066 251.18 44.7729 251.7C44.4798 252.219 44.3374 252.78 44.3458 253.383H41.6576C41.6576 252.211 41.9214 251.185 42.449 250.305C42.9849 249.418 43.7177 248.727 44.6473 248.233C45.5769 247.73 46.6404 247.479 47.838 247.479C48.9769 247.479 49.9986 247.739 50.903 248.258C51.8075 248.769 52.5193 249.472 53.0385 250.368C53.5661 251.264 53.8299 252.286 53.8299 253.433C53.8299 254.262 53.7211 254.966 53.5033 255.544C53.2856 256.121 52.959 256.657 52.5235 257.152C52.088 257.646 51.5437 258.182 50.8905 258.759L44.8106 264.186L44.5217 263.432H53.8299V265.932H41.5948ZM65.6735 266.284C64.7775 266.284 63.9358 266.116 63.1486 265.781C62.3614 265.438 61.6789 264.952 61.101 264.324C60.5316 263.696 60.117 262.955 59.8574 262.101L62.3949 261.397C62.6378 262.176 63.0607 262.775 63.6636 263.194C64.2666 263.604 64.9366 263.805 65.6735 263.797C66.3351 263.788 66.9171 263.633 67.4196 263.332C67.9221 263.03 68.3157 262.624 68.6004 262.113C68.8852 261.594 69.0275 261 69.0275 260.33C69.0275 259.325 68.7135 258.496 68.0854 257.842C67.4657 257.189 66.6534 256.863 65.6484 256.863C65.3637 256.863 65.0706 256.904 64.7691 256.988C64.476 257.072 64.1996 257.181 63.94 257.315L62.709 255.242L69.0903 249.602L69.3667 250.356H60.5735V247.856H71.4519V250.356L66.1509 255.456L66.1258 254.601C67.2647 254.601 68.2529 254.857 69.0903 255.368C69.9278 255.87 70.5726 256.557 71.0248 257.428C71.4854 258.29 71.7157 259.258 71.7157 260.33C71.7157 261.485 71.4436 262.511 70.8992 263.407C70.3633 264.303 69.6389 265.007 68.726 265.518C67.8216 266.029 66.8041 266.284 65.6735 266.284ZM86.4197 265.945V262.792H78.2545V260.305L84.1335 247.856H87.1357L81.2568 260.305H86.4197V255.405H89.0828V260.305H90.8791V262.792H89.0828V265.945H86.4197ZM109.615 265.945V250.745L106.21 252.818V249.891L109.615 247.856H112.29V265.945H109.615ZM120.327 265.932L120.339 263.596L128.215 256.536C128.852 255.975 129.283 255.439 129.509 254.928C129.744 254.417 129.861 253.906 129.861 253.396C129.861 252.751 129.719 252.173 129.434 251.662C129.149 251.143 128.756 250.732 128.253 250.431C127.751 250.129 127.173 249.979 126.52 249.979C125.85 249.979 125.251 250.138 124.723 250.456C124.204 250.766 123.798 251.18 123.505 251.7C123.212 252.219 123.069 252.78 123.078 253.383H120.389C120.389 252.211 120.653 251.185 121.181 250.305C121.717 249.418 122.45 248.727 123.379 248.233C124.309 247.73 125.372 247.479 126.57 247.479C127.709 247.479 128.73 247.739 129.635 248.258C130.539 248.769 131.251 249.472 131.77 250.368C132.298 251.264 132.562 252.286 132.562 253.433C132.562 254.262 132.453 254.966 132.235 255.544C132.017 256.121 131.691 256.657 131.255 257.152C130.82 257.646 130.276 258.182 129.622 258.759L123.542 264.186L123.254 263.432H132.562V265.932H120.327ZM144.405 266.284C143.509 266.284 142.668 266.116 141.881 265.781C141.093 265.438 140.411 264.952 139.833 264.324C139.263 263.696 138.849 262.955 138.589 262.101L141.127 261.397C141.37 262.176 141.793 262.775 142.396 263.194C142.999 263.604 143.668 263.805 144.405 263.797C145.067 263.788 145.649 263.633 146.152 263.332C146.654 263.03 147.048 262.624 147.332 262.113C147.617 261.594 147.759 261 147.759 260.33C147.759 259.325 147.445 258.496 146.817 257.842C146.198 257.189 145.385 256.863 144.38 256.863C144.096 256.863 143.802 256.904 143.501 256.988C143.208 257.072 142.932 257.181 142.672 257.315L141.441 255.242L147.822 249.602L148.099 250.356H139.305V247.856H150.184V250.356L144.883 255.456L144.858 254.601C145.997 254.601 146.985 254.857 147.822 255.368C148.66 255.87 149.305 256.557 149.757 257.428C150.217 258.29 150.448 259.258 150.448 260.33C150.448 261.485 150.175 262.511 149.631 263.407C149.095 264.303 148.371 265.007 147.458 265.518C146.553 266.029 145.536 266.284 144.405 266.284ZM165.152 265.945V262.792H156.986V260.305L162.865 247.856H165.868L159.989 260.305H165.152V255.405H167.815V260.305H169.611V262.792H167.815V265.945H165.152ZM188.346 265.945V250.745L184.942 252.818V249.891L188.346 247.856H191.022V265.945H188.346ZM199.059 265.932L199.071 263.596L206.947 256.536C207.584 255.975 208.015 255.439 208.241 254.928C208.476 254.417 208.593 253.906 208.593 253.396C208.593 252.751 208.451 252.173 208.166 251.662C207.881 251.143 207.488 250.732 206.985 250.431C206.483 250.129 205.905 249.979 205.252 249.979C204.582 249.979 203.983 250.138 203.455 250.456C202.936 250.766 202.53 251.18 202.237 251.7C201.944 252.219 201.801 252.78 201.81 253.383H199.121C199.121 252.211 199.385 251.185 199.913 250.305C200.449 249.418 201.182 248.727 202.111 248.233C203.041 247.73 204.104 247.479 205.302 247.479C206.441 247.479 207.462 247.739 208.367 248.258C209.271 248.769 209.983 249.472 210.502 250.368C211.03 251.264 211.294 252.286 211.294 253.433C211.294 254.262 211.185 254.966 210.967 255.544C210.749 256.121 210.423 256.657 209.987 257.152C209.552 257.646 209.007 258.182 208.354 258.759L202.274 264.186L201.985 263.432H211.294V265.932H199.059ZM223.137 266.284C222.241 266.284 221.4 266.116 220.612 265.781C219.825 265.438 219.143 264.952 218.565 264.324C217.995 263.696 217.581 262.955 217.321 262.101L219.859 261.397C220.102 262.176 220.524 262.775 221.127 263.194C221.73 263.604 222.4 263.805 223.137 263.797C223.799 263.788 224.381 263.633 224.883 263.332C225.386 263.03 225.779 262.624 226.064 262.113C226.349 261.594 226.491 261 226.491 260.33C226.491 259.325 226.177 258.496 225.549 257.842C224.929 257.189 224.117 256.863 223.112 256.863C222.827 256.863 222.534 256.904 222.233 256.988C221.94 257.072 221.663 257.181 221.404 257.315L220.173 255.242L226.554 249.602L226.83 250.356H218.037V247.856H228.916V250.356L223.615 255.456L223.59 254.601C224.728 254.601 225.717 254.857 226.554 255.368C227.392 255.87 228.036 256.557 228.489 257.428C228.949 258.29 229.18 259.258 229.18 260.33C229.18 261.485 228.907 262.511 228.363 263.407C227.827 264.303 227.103 265.007 226.19 265.518C225.285 266.029 224.268 266.284 223.137 266.284ZM243.883 265.945V262.792H235.718V260.305L241.597 247.856H244.599L238.721 260.305H243.883V255.405H246.547V260.305H248.343V262.792H246.547V265.945H243.883ZM267.078 265.945V250.745L263.674 252.818V249.891L267.078 247.856H269.754V265.945H267.078ZM277.79 265.932L277.803 263.596L285.679 256.536C286.316 255.975 286.747 255.439 286.973 254.928C287.208 254.417 287.325 253.906 287.325 253.396C287.325 252.751 287.182 252.173 286.898 251.662C286.613 251.143 286.219 250.732 285.717 250.431C285.214 250.129 284.637 249.979 283.983 249.979C283.313 249.979 282.715 250.138 282.187 250.456C281.668 250.766 281.262 251.18 280.969 251.7C280.675 252.219 280.533 252.78 280.541 253.383H277.853C277.853 252.211 278.117 251.185 278.645 250.305C279.181 249.418 279.913 248.727 280.843 248.233C281.773 247.73 282.836 247.479 284.034 247.479C285.173 247.479 286.194 247.739 287.099 248.258C288.003 248.769 288.715 249.472 289.234 250.368C289.762 251.264 290.026 252.286 290.026 253.433C290.026 254.262 289.917 254.966 289.699 255.544C289.481 256.121 289.155 256.657 288.719 257.152C288.284 257.646 287.739 258.182 287.086 258.759L281.006 264.186L280.717 263.432H290.026V265.932H277.79ZM301.869 266.284C300.973 266.284 300.131 266.116 299.344 265.781C298.557 265.438 297.875 264.952 297.297 264.324C296.727 263.696 296.313 262.955 296.053 262.101L298.591 261.397C298.833 262.176 299.256 262.775 299.859 263.194C300.462 263.604 301.132 263.805 301.869 263.797C302.531 263.788 303.113 263.633 303.615 263.332C304.118 263.03 304.511 262.624 304.796 262.113C305.081 261.594 305.223 261 305.223 260.33C305.223 259.325 304.909 258.496 304.281 257.842C303.661 257.189 302.849 256.863 301.844 256.863C301.559 256.863 301.266 256.904 300.965 256.988C300.672 257.072 300.395 257.181 300.136 257.315L298.905 255.242L305.286 249.602L305.562 250.356H296.769V247.856H307.648V250.356L302.347 255.456L302.321 254.601C303.46 254.601 304.449 254.857 305.286 255.368C306.123 255.87 306.768 256.557 307.221 257.428C307.681 258.29 307.911 259.258 307.911 260.33C307.911 261.485 307.639 262.511 307.095 263.407C306.559 264.303 305.835 265.007 304.922 265.518C304.017 266.029 303 266.284 301.869 266.284ZM322.615 265.945V262.792H314.45V260.305L320.329 247.856H323.331L317.452 260.305H322.615V255.405H325.278V260.305H327.075V262.792H325.278V265.945H322.615Z" fill="#101828"/>
<path d="M32.9523 221.542C31.5957 221.542 30.44 221.247 29.4853 220.656C28.5306 220.06 27.7989 219.231 27.2901 218.169C26.7876 217.108 26.5364 215.877 26.5364 214.476C26.5364 213.075 26.7876 211.844 27.2901 210.783C27.7989 209.721 28.5306 208.895 29.4853 208.305C30.44 207.708 31.5957 207.41 32.9523 207.41C34.3027 207.41 35.4553 207.708 36.41 208.305C37.3709 208.895 38.1027 209.721 38.6051 210.783C39.1076 211.844 39.3588 213.075 39.3588 214.476C39.3588 215.877 39.1076 217.108 38.6051 218.169C38.1027 219.231 37.3709 220.06 36.41 220.656C35.4553 221.247 34.3027 221.542 32.9523 221.542ZM32.9523 219.667C33.9133 219.68 34.711 219.469 35.3454 219.036C35.986 218.596 36.4665 217.987 36.7868 217.208C37.1071 216.423 37.2673 215.512 37.2673 214.476C37.2673 213.44 37.1071 212.535 36.7868 211.763C36.4665 210.984 35.986 210.378 35.3454 209.944C34.711 209.511 33.9133 209.291 32.9523 209.285C31.9914 209.272 31.1905 209.483 30.5499 209.916C29.9155 210.349 29.4382 210.959 29.1179 211.744C28.7975 212.529 28.6342 213.44 28.6279 214.476C28.6217 215.512 28.7787 216.42 29.099 217.199C29.4193 217.971 29.8998 218.574 30.5405 219.008C31.1874 219.441 31.9914 219.661 32.9523 219.667ZM42.3687 221.259V207.693H44.3377V219.403H50.4804V221.259H42.3687ZM53.2105 221.259V207.693H55.1796V221.259H53.2105ZM62.1353 221.259L57.7262 207.693H59.7706L63.5297 219.271L67.3359 207.693H69.3803L64.9712 221.259H62.1353ZM71.9318 221.259V207.693H73.9008V221.259H71.9318ZM76.73 221.259L81.1392 207.693H83.975L88.3842 221.259H86.3398L82.2792 208.88H82.7879L78.7744 221.259H76.73ZM79.0194 218.197V216.351H86.1042V218.197H79.0194ZM95.7309 221.259V207.693H101.214C101.346 207.693 101.509 207.699 101.704 207.711C101.899 207.718 102.084 207.737 102.26 207.768C103.014 207.887 103.642 208.145 104.144 208.541C104.653 208.936 105.033 209.436 105.284 210.039C105.535 210.642 105.661 211.307 105.661 212.036C105.661 213.116 105.385 214.049 104.832 214.834C104.279 215.613 103.45 216.1 102.345 216.294L101.544 216.389H97.7V221.259H95.7309ZM103.664 221.259L100.988 215.738L102.976 215.23L105.915 221.259H103.664ZM97.7 214.523H101.139C101.264 214.523 101.403 214.517 101.553 214.504C101.71 214.492 101.858 214.47 101.996 214.438C102.398 214.344 102.722 214.171 102.967 213.92C103.211 213.663 103.387 213.367 103.494 213.035C103.601 212.702 103.654 212.369 103.654 212.036C103.654 211.703 103.601 211.373 103.494 211.047C103.387 210.714 103.211 210.422 102.967 210.17C102.722 209.913 102.398 209.737 101.996 209.643C101.858 209.605 101.71 209.58 101.553 209.567C101.403 209.555 101.264 209.549 101.139 209.549H97.7V214.523ZM108.928 221.259V207.693H110.897V213.543H117.681V207.693H119.659V221.259H117.681V215.399H110.897V221.259H108.928ZM126.517 221.259V215.654L121.929 207.693H124.228L127.516 213.393L130.804 207.693H133.103L128.514 215.654V221.259H126.517ZM135.359 221.259V207.693H144.027V209.549H137.328V213.355H142.896V215.211H137.328V219.403H144.027V221.259H135.359Z" fill="#101828"/>
<path d="M277.493 221.542C276.57 221.542 275.753 221.341 275.043 220.939C274.334 220.531 273.775 219.972 273.366 219.262C272.964 218.552 272.763 217.736 272.763 216.813V212.14C272.763 211.216 272.964 210.4 273.366 209.69C273.775 208.98 274.334 208.424 275.043 208.022C275.753 207.614 276.57 207.41 277.493 207.41C278.416 207.41 279.233 207.614 279.943 208.022C280.652 208.424 281.208 208.98 281.61 209.69C282.018 210.4 282.223 211.216 282.223 212.14V216.813C282.223 217.736 282.018 218.552 281.61 219.262C281.208 219.972 280.652 220.531 279.943 220.939C279.233 221.341 278.416 221.542 277.493 221.542ZM277.493 219.658C277.995 219.658 278.451 219.538 278.859 219.3C279.274 219.055 279.603 218.728 279.848 218.32C280.093 217.905 280.216 217.444 280.216 216.935V211.998C280.216 211.496 280.093 211.04 279.848 210.632C279.603 210.218 279.274 209.891 278.859 209.652C278.451 209.407 277.995 209.285 277.493 209.285C276.991 209.285 276.532 209.407 276.117 209.652C275.709 209.891 275.383 210.218 275.138 210.632C274.893 211.04 274.77 211.496 274.77 211.998V216.935C274.77 217.444 274.893 217.905 275.138 218.32C275.383 218.728 275.709 219.055 276.117 219.3C276.532 219.538 276.991 219.658 277.493 219.658ZM290.459 221.542C289.579 221.542 288.788 221.335 288.084 220.92C287.381 220.499 286.822 219.925 286.407 219.196C285.999 218.468 285.795 217.638 285.795 216.709V212.384C285.795 211.398 285.999 210.532 286.407 209.784C286.822 209.037 287.394 208.456 288.122 208.041C288.857 207.627 289.702 207.419 290.657 207.419C291.373 207.419 292.045 207.554 292.673 207.825C293.301 208.095 293.844 208.497 294.303 209.03L292.861 210.378C292.604 210.045 292.28 209.781 291.891 209.586C291.508 209.385 291.096 209.285 290.657 209.285C290.091 209.285 289.595 209.42 289.168 209.69C288.741 209.954 288.405 210.302 288.16 210.736C287.921 211.169 287.802 211.634 287.802 212.13V214.617L287.416 214.184C287.805 213.675 288.289 213.273 288.866 212.978C289.444 212.683 290.063 212.535 290.722 212.535C291.564 212.535 292.315 212.733 292.974 213.129C293.64 213.518 294.161 214.049 294.538 214.721C294.921 215.393 295.113 216.15 295.113 216.992C295.113 217.839 294.899 218.609 294.472 219.3C294.051 219.984 293.486 220.531 292.776 220.939C292.073 221.341 291.3 221.542 290.459 221.542ZM290.459 219.648C290.949 219.648 291.395 219.529 291.796 219.29C292.198 219.052 292.519 218.731 292.757 218.329C292.996 217.927 293.115 217.481 293.115 216.992C293.115 216.502 292.996 216.056 292.757 215.654C292.525 215.252 292.208 214.931 291.806 214.693C291.404 214.454 290.958 214.335 290.468 214.335C289.978 214.335 289.529 214.454 289.121 214.693C288.719 214.931 288.399 215.252 288.16 215.654C287.921 216.056 287.802 216.502 287.802 216.992C287.802 217.475 287.921 217.918 288.16 218.32C288.399 218.722 288.719 219.045 289.121 219.29C289.523 219.529 289.969 219.648 290.459 219.648ZM301.87 207.693H303.858L300.24 221.259H298.252L301.87 207.693ZM306.881 221.25L306.891 219.498L312.798 214.203C313.275 213.782 313.599 213.38 313.768 212.997C313.944 212.614 314.032 212.231 314.032 211.847C314.032 211.364 313.925 210.93 313.712 210.547C313.498 210.158 313.203 209.85 312.826 209.624C312.449 209.398 312.016 209.285 311.526 209.285C311.023 209.285 310.574 209.404 310.179 209.643C309.789 209.875 309.485 210.186 309.265 210.576C309.045 210.965 308.938 211.386 308.944 211.838H306.928C306.928 210.959 307.126 210.189 307.522 209.53C307.924 208.864 308.473 208.346 309.171 207.975C309.868 207.598 310.665 207.41 311.564 207.41C312.418 207.41 313.184 207.605 313.862 207.994C314.541 208.377 315.075 208.905 315.464 209.577C315.86 210.249 316.058 211.015 316.058 211.876C316.058 212.498 315.976 213.025 315.813 213.459C315.649 213.892 315.404 214.294 315.078 214.664C314.751 215.035 314.343 215.437 313.853 215.87L309.293 219.94L309.076 219.375H316.058V221.25H306.881ZM324.638 221.259V218.895H318.514V217.029L322.924 207.693H325.175L320.766 217.029H324.638V213.355H326.636V217.029H327.983V218.895H326.636V221.259H324.638Z" fill="#101828"/>
<g clip-path="url(#clip0_1_3507)">
<path d="M457.816 33.6943C460.77 38.8094 462.324 44.6117 462.324 50.5181C462.324 56.4245 460.77 62.2268 457.816 67.3419M450.414 37.3955C452.717 41.3853 453.93 45.9111 453.93 50.5181C453.93 55.1251 452.717 59.6509 450.414 63.6407M443.348 40.794C445.013 43.7096 445.89 47.0169 445.89 50.3835C445.89 53.7502 445.013 57.0575 443.348 59.9731M436.282 44.4615C437.482 46.2783 438.119 48.3767 438.119 50.5181C438.119 52.6595 437.482 54.758 436.282 56.5747" stroke="#101828" stroke-width="4.03771" stroke-linecap="round"/>
</g>
<rect x="1.63264" y="1.0562" width="494.62" height="296.772" rx="19.2149" stroke="url(#paint1_linear_1_3507)" stroke-width="1.57022"/>
<defs>
<linearGradient id="paint0_linear_1_3507" x1="25.6371" y1="0.27112" x2="536.827" y2="359.575" gradientUnits="userSpaceOnUse">
<stop stop-color="white" stop-opacity="0.51"/>
<stop offset="1" stop-color="white" stop-opacity="0"/>
</linearGradient>
<linearGradient id="paint1_linear_1_3507" x1="0.847534" y1="12.869" x2="485.704" y2="316.699" gradientUnits="userSpaceOnUse">
<stop stop-color="white"/>
<stop offset="1" stop-color="white" stop-opacity="0.2"/>
</linearGradient>
<clipPath id="clip0_1_3507">
<rect width="31.4044" height="37.6853" fill="white" transform="translate(434.039 31.6755)"/>
</clipPath>
</defs>
</svg>
